<svg xmlns="http://www.w3.org/2000/svg" width="600" height="400" viewBox="0 0 600 400">
  <!-- Browser window frame -->
  <rect fill="#f8fafc" width="600" height="400" rx="8"/>

  <!-- Browser toolbar -->
  <rect fill="#e2e8f0" x="0" y="0" width="600" height="28" rx="8"/>
  <rect fill="#e2e8f0" x="0" y="20" width="600" height="8"/>

  <!-- Window controls -->
  <circle fill="#f87171" cx="16" cy="14" r="5"/>
  <circle fill="#fbbf24" cx="32" cy="14" r="5"/>
  <circle fill="#4ade80" cx="48" cy="14" r="5"/>

  <!-- URL bar -->
  <rect fill="#ffffff" x="70" y="6" width="460" height="16" rx="4"/>
  <text x="80" y="17" font-family="system-ui, sans-serif" font-size="9" fill="#64748b">houstonfamilydental.com</text>

  <!-- Website header -->
  <rect fill="#ffffff" x="0" y="28" width="600" height="50"/>
  <rect fill="#e2e8f0" x="0" y="78" width="600" height="1"/>

  <!-- Logo - tooth icon -->
  <circle fill="#0891b2" cx="35" cy="53" r="15"/>
  <text x="35" y="58" font-family="system-ui, sans-serif" font-size="14" fill="#ffffff" text-anchor="middle">+</text>
  <text x="60" y="58" font-family="system-ui, sans-serif" font-size="14" font-weight="bold" fill="#0891b2">Family Dental</text>

  <!-- Nav items -->
  <text x="280" y="58" font-family="system-ui, sans-serif" font-size="11" fill="#475569">Services</text>
  <text x="340" y="58" font-family="system-ui, sans-serif" font-size="11" fill="#475569">Team</text>
  <text x="385" y="58" font-family="system-ui, sans-serif" font-size="11" fill="#475569">Contact</text>

  <!-- CTA button -->
  <rect fill="#0891b2" x="470" y="42" width="110" height="28" rx="6"/>
  <text x="525" y="60" font-family="system-ui, sans-serif" font-size="11" font-weight="600" fill="#ffffff" text-anchor="middle">Book Now</text>

  <!-- Hero section -->
  <defs>
    <linearGradient id="dentalHero" x1="0%" y1="0%" x2="100%" y2="100%">
      <stop offset="0%" style="stop-color:#ecfeff"/>
      <stop offset="100%" style="stop-color:#cffafe"/>
    </linearGradient>
  </defs>
  <rect fill="url(#dentalHero)" x="0" y="79" width="600" height="160"/>

  <!-- Hero content -->
  <text x="40" y="125" font-family="system-ui, sans-serif" font-size="24" font-weight="bold" fill="#0f172a">Your Smile,</text>
  <text x="40" y="155" font-family="system-ui, sans-serif" font-size="24" font-weight="bold" fill="#0891b2">Our Priority</text>
  <text x="40" y="180" font-family="system-ui, sans-serif" font-size="11" fill="#475569">Comprehensive dental care for the whole family</text>

  <!-- Hero CTA -->
  <rect fill="#0891b2" x="40" y="195" width="130" height="30" rx="6"/>
  <text x="105" y="214" font-family="system-ui, sans-serif" font-size="10" font-weight="600" fill="#ffffff" text-anchor="middle">Schedule Visit</text>

  <!-- Hero image - doctor/dental illustration -->
  <rect fill="#ffffff" x="380" y="100" width="180" height="120" rx="12"/>
  <circle fill="#e0f2fe" cx="470" cy="140" r="30"/>
  <circle fill="#0891b2" cx="470" cy="140" r="20"/>
  <text x="470" y="145" font-family="system-ui, sans-serif" font-size="16" fill="#ffffff" text-anchor="middle">+</text>
  <rect fill="#cbd5e1" x="420" y="180" width="100" height="8" rx="2"/>
  <rect fill="#e2e8f0" x="435" y="195" width="70" height="6" rx="2"/>

  <!-- Services section - dark navy theme -->
  <rect fill="#0f172a" x="0" y="239" width="600" height="161"/>
  <text x="300" y="268" font-family="system-ui, sans-serif" font-size="14" font-weight="bold" fill="#ffffff" text-anchor="middle">Our Services</text>

  <!-- Service cards - dark navy -->
  <rect fill="#1e293b" x="30" y="285" width="120" height="95" rx="8"/>
  <circle fill="#164e63" cx="90" cy="315" r="16"/>
  <rect fill="#0891b2" x="82" y="310" width="16" height="10" rx="2"/>
  <text x="90" y="345" font-family="system-ui, sans-serif" font-size="10" font-weight="600" fill="#ffffff" text-anchor="middle">Cleaning</text>
  <rect fill="#475569" x="50" y="358" width="80" height="5" rx="2"/>
  <rect fill="#334155" x="60" y="368" width="60" height="4" rx="2"/>

  <rect fill="#1e293b" x="170" y="285" width="120" height="95" rx="8"/>
  <circle fill="#713f12" cx="230" cy="315" r="16"/>
  <rect fill="#f59e0b" x="222" y="310" width="16" height="10" rx="2"/>
  <text x="230" y="345" font-family="system-ui, sans-serif" font-size="10" font-weight="600" fill="#ffffff" text-anchor="middle">Whitening</text>
  <rect fill="#475569" x="190" y="358" width="80" height="5" rx="2"/>
  <rect fill="#334155" x="200" y="368" width="60" height="4" rx="2"/>

  <rect fill="#1e293b" x="310" y="285" width="120" height="95" rx="8"/>
  <circle fill="#14532d" cx="370" cy="315" r="16"/>
  <rect fill="#22c55e" x="362" y="310" width="16" height="10" rx="2"/>
  <text x="370" y="345" font-family="system-ui, sans-serif" font-size="10" font-weight="600" fill="#ffffff" text-anchor="middle">Implants</text>
  <rect fill="#475569" x="330" y="358" width="80" height="5" rx="2"/>
  <rect fill="#334155" x="340" y="368" width="60" height="4" rx="2"/>

  <rect fill="#1e293b" x="450" y="285" width="120" height="95" rx="8"/>
  <circle fill="#831843" cx="510" cy="315" r="16"/>
  <rect fill="#ec4899" x="502" y="310" width="16" height="10" rx="2"/>
  <text x="510" y="345" font-family="system-ui, sans-serif" font-size="10" font-weight="600" fill="#ffffff" text-anchor="middle">Orthodontics</text>
  <rect fill="#475569" x="470" y="358" width="80" height="5" rx="2"/>
  <rect fill="#334155" x="480" y="368" width="60" height="4" rx="2"/>
</svg>
