<svg xmlns="http://www.w3.org/2000/svg" width="600" height="400" viewBox="0 0 600 400">
  <!-- Browser window frame -->
  <rect fill="#1e293b" width="600" height="400" rx="8"/>

  <!-- Browser toolbar -->
  <rect fill="#334155" x="0" y="0" width="600" height="28" rx="8"/>
  <rect fill="#334155" x="0" y="20" width="600" height="8"/>

  <!-- Window controls -->
  <circle fill="#f87171" cx="16" cy="14" r="5"/>
  <circle fill="#fbbf24" cx="32" cy="14" r="5"/>
  <circle fill="#4ade80" cx="48" cy="14" r="5"/>

  <!-- URL bar -->
  <rect fill="#1e293b" x="70" y="6" width="460" height="16" rx="4"/>
  <text x="80" y="17" font-family="system-ui, sans-serif" font-size="9" fill="#94a3b8">houstonenergy.com</text>

  <!-- Website header -->
  <rect fill="#0f172a" x="0" y="28" width="600" height="50"/>

  <!-- Logo -->
  <rect fill="#3b82f6" x="20" y="40" width="8" height="26" rx="2"/>
  <rect fill="#60a5fa" x="32" y="46" width="6" height="20" rx="2"/>
  <text x="48" y="58" font-family="system-ui, sans-serif" font-size="14" font-weight="bold" fill="#ffffff">Houston Energy</text>

  <!-- Nav items -->
  <text x="300" y="58" font-family="system-ui, sans-serif" font-size="11" fill="#94a3b8">Services</text>
  <text x="360" y="58" font-family="system-ui, sans-serif" font-size="11" fill="#94a3b8">About</text>
  <text x="410" y="58" font-family="system-ui, sans-serif" font-size="11" fill="#94a3b8">Contact</text>

  <!-- CTA button -->
  <rect fill="#3b82f6" x="480" y="42" width="100" height="28" rx="6"/>
  <text x="530" y="60" font-family="system-ui, sans-serif" font-size="11" font-weight="600" fill="#ffffff" text-anchor="middle">Get Quote</text>

  <!-- Hero section with gradient -->
  <defs>
    <linearGradient id="heroGrad" x1="0%" y1="0%" x2="100%" y2="100%">
      <stop offset="0%" style="stop-color:#1e3a5f"/>
      <stop offset="100%" style="stop-color:#0f172a"/>
    </linearGradient>
  </defs>
  <rect fill="url(#heroGrad)" x="0" y="78" width="600" height="180"/>

  <!-- Hero content -->
  <text x="40" y="130" font-family="system-ui, sans-serif" font-size="28" font-weight="bold" fill="#ffffff">Power Your</text>
  <text x="40" y="165" font-family="system-ui, sans-serif" font-size="28" font-weight="bold" fill="#3b82f6">Business Forward</text>
  <text x="40" y="195" font-family="system-ui, sans-serif" font-size="12" fill="#94a3b8">Houston's trusted energy consulting partner</text>

  <!-- Hero CTA buttons -->
  <rect fill="#3b82f6" x="40" y="215" width="120" height="32" rx="6"/>
  <text x="100" y="236" font-family="system-ui, sans-serif" font-size="11" font-weight="600" fill="#ffffff" text-anchor="middle">Learn More</text>
  <rect fill="none" stroke="#475569" x="170" y="215" width="120" height="32" rx="6"/>
  <text x="230" y="236" font-family="system-ui, sans-serif" font-size="11" fill="#94a3b8" text-anchor="middle">Our Services</text>

  <!-- Hero image/illustration area -->
  <rect fill="#1e3a5f" x="380" y="100" width="200" height="140" rx="8"/>
  <circle fill="#3b82f6" opacity="0.3" cx="480" cy="170" r="50"/>
  <rect fill="#60a5fa" x="440" y="140" width="80" height="8" rx="2"/>
  <rect fill="#60a5fa" x="440" y="155" width="60" height="8" rx="2"/>
  <rect fill="#60a5fa" x="440" y="170" width="70" height="8" rx="2"/>

  <!-- Services section -->
  <rect fill="#f8fafc" x="0" y="258" width="600" height="142"/>
  <text x="300" y="290" font-family="system-ui, sans-serif" font-size="16" font-weight="bold" fill="#1e293b" text-anchor="middle">Our Services</text>

  <!-- Service cards -->
  <rect fill="#ffffff" x="30" y="310" width="160" height="70" rx="8"/>
  <rect fill="#3b82f6" x="30" y="310" width="160" height="4" rx="2"/>
  <rect fill="#e2e8f0" x="45" y="325" width="40" height="8" rx="2"/>
  <rect fill="#cbd5e1" x="45" y="340" width="120" height="6" rx="2"/>
  <rect fill="#cbd5e1" x="45" y="352" width="100" height="6" rx="2"/>

  <rect fill="#ffffff" x="220" y="310" width="160" height="70" rx="8"/>
  <rect fill="#10b981" x="220" y="310" width="160" height="4" rx="2"/>
  <rect fill="#e2e8f0" x="235" y="325" width="40" height="8" rx="2"/>
  <rect fill="#cbd5e1" x="235" y="340" width="120" height="6" rx="2"/>
  <rect fill="#cbd5e1" x="235" y="352" width="100" height="6" rx="2"/>

  <rect fill="#ffffff" x="410" y="310" width="160" height="70" rx="8"/>
  <rect fill="#f59e0b" x="410" y="310" width="160" height="4" rx="2"/>
  <rect fill="#e2e8f0" x="425" y="325" width="40" height="8" rx="2"/>
  <rect fill="#cbd5e1" x="425" y="340" width="120" height="6" rx="2"/>
  <rect fill="#cbd5e1" x="425" y="352" width="100" height="6" rx="2"/>
</svg>
